# xmcd
#
# Track frame offsets:
#	150
#	20347
#	32744
#	54050
#	73563
#	97786
#	128921
#	159416
#	179414
#	201866
#	236531
#	262342
#	288861
#
# Disc length: 4338 seconds
#
# Revision: 1
# Processed by: cddbd v1.5.2PL0 Copyright (c) Steve Scherf et al.
# Submitted via: audiograbber 1.83.01
#
DISCID=ab10f00d
DTITLE=black'n blue feat.: Aron Burton - LIVE in concert at PJ's BLUES STOP
DYEAR=2001
DGENRE=
TTITLE0=Sugar Mama
TTITLE1=Walking By Myself
TTITLE2=Trouble -  feat. Aron Burton
TTITLE3=One Foot On The Path
TTITLE4=Oon't Give A Damm
TTITLE5=Hoochie Coochie Man
TTITLE6=Mustang Sally
TTITLE7=Shame
TTITLE8=Proud Mary
TTITLE9=Southbound Train - feat. Aron Burton
TTITLE10=Live Like A Beggar - feat. Aron Burton
TTITLE11=Two Way Street - feat. Aron Burton
TTITLE12=Johnny B. Good
EXTD=
EXTT0=
EXTT1=
EXTT2=
EXTT3=
EXTT4=
EXTT5=
EXTT6=
EXTT7=
EXTT8=
EXTT9=
EXTT10=
EXTT11=
EXTT12=
PLAYORDER=
